<svg width="900.0" height="3693.1837365484103" viewBox="0 0 900.0 3693.1837365484103" class="keymap" xmlns="http://www.w3.org/2000/svg" xmlns:xlink="http://www.w3.org/1999/xlink">
<defs>/* start glyphs */
<svg id="material:arrow_drop_up">
<svg xmlns="http://www.w3.org/2000/svg" viewBox="0 -960 960 960"><path d="m280-400 200-201 200 201H280Z"/></svg>
</svg>
<svg id="material:arrow_right">
<svg xmlns="http://www.w3.org/2000/svg" viewBox="0 -960 960 960"><path d="M400-280v-400l200 200-200 200Z"/></svg>
</svg>
<svg id="material:arrow_drop_down">
<svg xmlns="http://www.w3.org/2000/svg" viewBox="0 -960 960 960"><path d="M480-360 280-559h400L480-360Z"/></svg>
</svg>
<svg id="material:arrow_left">
<svg xmlns="http://www.w3.org/2000/svg" viewBox="0 -960 960 960"><path d="M560-280 360-480l200-200v400Z"/></svg>
</svg>
</defs>/* end glyphs */
<style>/* inherit to force styles through use tags*/
svg path {
    fill: inherit;
}
/* font and background color specifications */
svg.keymap {
    font-family: SFMono-Regular,Consolas,Liberation Mono,Menlo,monospace;
    font-size: 14px;
    font-kerning: normal;
    text-rendering: optimizeLegibility;
    fill: #24292e;
}

/* default key styling */
rect.key {
    fill: #f6f8fa;
    stroke: #c9cccf;
    stroke-width: 1;
}

/* color accent for combo boxes */
rect.combo {
    fill: #cdf;
}

/* color accent for held keys */
rect.held, rect.combo.held {
    fill: #fdd;
}

/* color accent for ghost (optional) keys */
rect.ghost, rect.combo.ghost {
    fill: #ddd;
}

text {
    text-anchor: middle;
    dominant-baseline: middle;
}

/* styling for layer labels */
text.label {
    font-weight: bold;
    text-anchor: start;
    stroke: white;
    stroke-width: 2;
    paint-order: stroke;
}

/* styling for combo tap, and key hold/shifted label text */
text.combo, text.hold, text.shifted {
    font-size: 11px;
}

text.hold {
    text-anchor: middle;
    dominant-baseline: auto;
}

text.shifted {
    text-anchor: middle;
    dominant-baseline: hanging;
}

/* styling for hold/shifted label text in combo box */
text.combo.hold, text.combo.shifted {
    font-size: 8px;
}

/* lighter symbol for transparent keys */
text.trans {
    fill: #7b7e81;
}

/* styling for combo dendrons */
path.combo {
    stroke-width: 1;
    stroke: gray;
    fill: none;
}

/* Start Tabler Icons Cleanup */
/* cannot use height/width with glyphs */
.icon-tabler > path {
    fill: inherit;
    stroke: inherit;
}
/* hide tabler's default box */
.icon-tabler > path[stroke="none"][fill="none"] {
    visibility: collapse;
}
/* End Tabler Icons Cleanup */
</style>
<g class="layer-Base">
<text x="30.0" y="28.0" class="label">Base:</text>
<rect rx="6.0" ry="6.0" x="32.0" y="79.0" width="52.0" height="52.0" class="key"/>
<rect rx="6.0" ry="6.0" x="88.0" y="79.0" width="52.0" height="52.0" class="key"/>
<text x="114.0" y="105.0" class="tap">Q</text>
<rect rx="6.0" ry="6.0" x="144.0" y="65.0" width="52.0" height="52.0" class="key"/>
<text x="170.0" y="91.0" class="tap">W</text>
<rect rx="6.0" ry="6.0" x="200.0" y="58.0" width="52.0" height="52.0" class="key"/>
<text x="226.0" y="84.0" class="tap">E</text>
<rect rx="6.0" ry="6.0" x="256.0" y="65.0" width="52.0" height="52.0" class="key"/>
<text x="282.0" y="91.0" class="tap">R</text>
<rect rx="6.0" ry="6.0" x="312.0" y="72.0" width="52.0" height="52.0" class="key"/>
<text x="338.0" y="98.0" class="tap">T</text>
<rect rx="6.0" ry="6.0" x="536.0" y="72.0" width="52.0" height="52.0" class="key"/>
<text x="562.0" y="98.0" class="tap">Y</text>
<rect rx="6.0" ry="6.0" x="592.0" y="65.0" width="52.0" height="52.0" class="key"/>
<text x="618.0" y="91.0" class="tap">U</text>
<rect rx="6.0" ry="6.0" x="648.0" y="58.0" width="52.0" height="52.0" class="key"/>
<text x="674.0" y="84.0" class="tap">I</text>
<rect rx="6.0" ry="6.0" x="704.0" y="65.0" width="52.0" height="52.0" class="key"/>
<text x="730.0" y="91.0" class="tap">O</text>
<rect rx="6.0" ry="6.0" x="760.0" y="79.0" width="52.0" height="52.0" class="key"/>
<text x="786.0" y="105.0" class="tap">P</text>
<rect rx="6.0" ry="6.0" x="816.0" y="79.0" width="52.0" height="52.0" class="key"/>
<rect rx="6.0" ry="6.0" x="32.0" y="135.0" width="52.0" height="52.0" class="key"/>
<rect rx="6.0" ry="6.0" x="88.0" y="135.0" width="52.0" height="52.0" class="key"/>
<text x="114.0" y="161.0" class="tap">A</text>
<text x="114.0" y="185.0" class="hold">LGUI</text>
<rect rx="6.0" ry="6.0" x="144.0" y="121.0" width="52.0" height="52.0" class="key"/>
<text x="170.0" y="147.0" class="tap">S</text>
<text x="170.0" y="171.0" class="hold">LALT</text>
<rect rx="6.0" ry="6.0" x="200.0" y="114.0" width="52.0" height="52.0" class="key"/>
<text x="226.0" y="140.0" class="tap">D</text>
<text x="226.0" y="164.0" class="hold">LCTRL</text>
<rect rx="6.0" ry="6.0" x="256.0" y="121.0" width="52.0" height="52.0" class="key"/>
<text x="282.0" y="147.0" class="tap">F</text>
<text x="282.0" y="171.0" class="hold">LSHFT</text>
<rect rx="6.0" ry="6.0" x="312.0" y="128.0" width="52.0" height="52.0" class="key"/>
<text x="338.0" y="154.0" class="tap">G</text>
<rect rx="6.0" ry="6.0" x="536.0" y="128.0" width="52.0" height="52.0" class="key"/>
<text x="562.0" y="154.0" class="tap">H</text>
<rect rx="6.0" ry="6.0" x="592.0" y="121.0" width="52.0" height="52.0" class="key"/>
<text x="618.0" y="147.0" class="tap">J</text>
<text x="618.0" y="171.0" class="hold">LSHFT</text>
<rect rx="6.0" ry="6.0" x="648.0" y="114.0" width="52.0" height="52.0" class="key"/>
<text x="674.0" y="140.0" class="tap">K</text>
<text x="674.0" y="164.0" class="hold">LCTRL</text>
<rect rx="6.0" ry="6.0" x="704.0" y="121.0" width="52.0" height="52.0" class="key"/>
<text x="730.0" y="147.0" class="tap">L</text>
<text x="730.0" y="171.0" class="hold">LALT</text>
<rect rx="6.0" ry="6.0" x="760.0" y="135.0" width="52.0" height="52.0" class="key"/>
<text x="786.0" y="161.0" class="tap">&#x27;</text>
<text x="786.0" y="185.0" class="hold">LGUI</text>
<rect rx="6.0" ry="6.0" x="816.0" y="135.0" width="52.0" height="52.0" class="key"/>
<rect rx="6.0" ry="6.0" x="32.0" y="191.0" width="52.0" height="52.0" class="key"/>
<rect rx="6.0" ry="6.0" x="88.0" y="191.0" width="52.0" height="52.0" class="key"/>
<text x="114.0" y="217.0" class="tap">Z</text>
<text x="114.0" y="241.0" class="hold">Button</text>
<rect rx="6.0" ry="6.0" x="144.0" y="177.0" width="52.0" height="52.0" class="key"/>
<text x="170.0" y="203.0" class="tap">X</text>
<text x="170.0" y="227.0" class="hold">RALT</text>
<rect rx="6.0" ry="6.0" x="200.0" y="170.0" width="52.0" height="52.0" class="key"/>
<text x="226.0" y="196.0" class="tap">C</text>
<rect rx="6.0" ry="6.0" x="256.0" y="177.0" width="52.0" height="52.0" class="key"/>
<text x="282.0" y="203.0" class="tap">V</text>
<rect rx="6.0" ry="6.0" x="312.0" y="184.0" width="52.0" height="52.0" class="key"/>
<text x="338.0" y="210.0" class="tap">B</text>
<rect rx="6.0" ry="6.0" x="536.0" y="184.0" width="52.0" height="52.0" class="key"/>
<text x="562.0" y="210.0" class="tap">N</text>
<rect rx="6.0" ry="6.0" x="592.0" y="177.0" width="52.0" height="52.0" class="key"/>
<text x="618.0" y="203.0" class="tap">M</text>
<rect rx="6.0" ry="6.0" x="648.0" y="170.0" width="52.0" height="52.0" class="key"/>
<text x="674.0" y="196.0" class="tap">,</text>
<rect rx="6.0" ry="6.0" x="704.0" y="177.0" width="52.0" height="52.0" class="key"/>
<text x="730.0" y="203.0" class="tap">.</text>
<text x="730.0" y="227.0" class="hold">RALT</text>
<rect rx="6.0" ry="6.0" x="760.0" y="191.0" width="52.0" height="52.0" class="key"/>
<text x="786.0" y="217.0" class="tap">/</text>
<text x="786.0" y="241.0" class="hold">Button</text>
<rect rx="6.0" ry="6.0" x="816.0" y="191.0" width="52.0" height="52.0" class="key"/>
<rect rx="6.0" ry="6.0" x="228.0" y="234.84799999999996" width="52.0" height="52.0" class="key"/>
<text x="254.0" y="260.84799999999996" class="tap">ESC</text>
<text x="254.0" y="284.84799999999996" class="hold">Media</text>
<g transform="rotate(15.0, 315.59999999999997, 269.08000000000004)">
<rect rx="6.0" ry="6.0" x="289.59999999999997" y="243.08000000000004" width="52.0" height="52.0" class="key"/>
<text x="315.59999999999997" y="269.08000000000004" class="tap">SPACE</text>
<text x="315.59999999999997" y="293.08000000000004" class="hold">Nav</text>
</g>
<g transform="rotate(30.0, 381.12, 280.28)">
<rect rx="6.0" ry="6.0" x="355.12" y="240.27999999999997" width="52.0" height="80.0" class="key"/>
<text x="381.12" y="280.28" class="tap">TAB</text>
<text x="381.12" y="318.28" class="hold">Mouse</text>
</g>
<g transform="rotate(-30.0, 518.88, 280.28)">
<rect rx="6.0" ry="6.0" x="492.88" y="240.27999999999997" width="52.0" height="80.0" class="key"/>
<text x="518.88" y="280.28" class="tap">RET</text>
<text x="518.88" y="318.28" class="hold">Sym</text>
</g>
<g transform="rotate(-15.0, 584.4, 269.08000000000004)">
<rect rx="6.0" ry="6.0" x="558.4" y="243.08000000000004" width="52.0" height="52.0" class="key"/>
<text x="584.4" y="269.08000000000004" class="tap">BSPC</text>
<text x="584.4" y="293.08000000000004" class="hold">Num</text>
</g>
<rect rx="6.0" ry="6.0" x="620.0" y="234.84799999999996" width="52.0" height="52.0" class="key"/>
<text x="646.0" y="260.84799999999996" class="tap">DEL</text>
<text x="646.0" y="284.84799999999996" class="hold">Fun</text>
</g>
<g class="layer-Extra">
<text x="30.0" y="358.6530669589464" class="label">Extra:</text>
<rect rx="6.0" ry="6.0" x="32.0" y="409.6530669589464" width="52.0" height="52.0" class="key"/>
<rect rx="6.0" ry="6.0" x="88.0" y="409.6530669589464" width="52.0" height="52.0" class="key"/>
<text x="114.0" y="435.6530669589464" class="tap">Q</text>
<rect rx="6.0" ry="6.0" x="144.0" y="395.6530669589464" width="52.0" height="52.0" class="key"/>
<text x="170.0" y="421.6530669589464" class="tap">W</text>
<rect rx="6.0" ry="6.0" x="200.0" y="388.6530669589464" width="52.0" height="52.0" class="key"/>
<text x="226.0" y="414.6530669589464" class="tap">F</text>
<rect rx="6.0" ry="6.0" x="256.0" y="395.6530669589464" width="52.0" height="52.0" class="key"/>
<text x="282.0" y="421.6530669589464" class="tap">P</text>
<rect rx="6.0" ry="6.0" x="312.0" y="402.6530669589464" width="52.0" height="52.0" class="key"/>
<text x="338.0" y="428.6530669589464" class="tap">B</text>
<rect rx="6.0" ry="6.0" x="536.0" y="402.6530669589464" width="52.0" height="52.0" class="key"/>
<text x="562.0" y="428.6530669589464" class="tap">J</text>
<rect rx="6.0" ry="6.0" x="592.0" y="395.6530669589464" width="52.0" height="52.0" class="key"/>
<text x="618.0" y="421.6530669589464" class="tap">L</text>
<rect rx="6.0" ry="6.0" x="648.0" y="388.6530669589464" width="52.0" height="52.0" class="key"/>
<text x="674.0" y="414.6530669589464" class="tap">U</text>
<rect rx="6.0" ry="6.0" x="704.0" y="395.6530669589464" width="52.0" height="52.0" class="key"/>
<text x="730.0" y="421.6530669589464" class="tap">Y</text>
<rect rx="6.0" ry="6.0" x="760.0" y="409.6530669589464" width="52.0" height="52.0" class="key"/>
<text x="786.0" y="435.6530669589464" class="tap">&#x27;</text>
<rect rx="6.0" ry="6.0" x="816.0" y="409.6530669589464" width="52.0" height="52.0" class="key"/>
<rect rx="6.0" ry="6.0" x="32.0" y="465.6530669589464" width="52.0" height="52.0" class="key"/>
<rect rx="6.0" ry="6.0" x="88.0" y="465.6530669589464" width="52.0" height="52.0" class="key"/>
<text x="114.0" y="491.6530669589464" class="tap">A</text>
<text x="114.0" y="515.6530669589464" class="hold">LGUI</text>
<rect rx="6.0" ry="6.0" x="144.0" y="451.6530669589464" width="52.0" height="52.0" class="key"/>
<text x="170.0" y="477.6530669589464" class="tap">R</text>
<text x="170.0" y="501.6530669589464" class="hold">LALT</text>
<rect rx="6.0" ry="6.0" x="200.0" y="444.6530669589464" width="52.0" height="52.0" class="key"/>
<text x="226.0" y="470.6530669589464" class="tap">S</text>
<text x="226.0" y="494.6530669589464" class="hold">LCTRL</text>
<rect rx="6.0" ry="6.0" x="256.0" y="451.6530669589464" width="52.0" height="52.0" class="key"/>
<text x="282.0" y="477.6530669589464" class="tap">T</text>
<text x="282.0" y="501.6530669589464" class="hold">LSHFT</text>
<rect rx="6.0" ry="6.0" x="312.0" y="458.6530669589464" width="52.0" height="52.0" class="key"/>
<text x="338.0" y="484.6530669589464" class="tap">G</text>
<rect rx="6.0" ry="6.0" x="536.0" y="458.6530669589464" width="52.0" height="52.0" class="key"/>
<text x="562.0" y="484.6530669589464" class="tap">K</text>
<rect rx="6.0" ry="6.0" x="592.0" y="451.6530669589464" width="52.0" height="52.0" class="key"/>
<text x="618.0" y="477.6530669589464" class="tap">N</text>
<text x="618.0" y="501.6530669589464" class="hold">LSHFT</text>
<rect rx="6.0" ry="6.0" x="648.0" y="444.6530669589464" width="52.0" height="52.0" class="key"/>
<text x="674.0" y="470.6530669589464" class="tap">E</text>
<text x="674.0" y="494.6530669589464" class="hold">LCTRL</text>
<rect rx="6.0" ry="6.0" x="704.0" y="451.6530669589464" width="52.0" height="52.0" class="key"/>
<text x="730.0" y="477.6530669589464" class="tap">I</text>
<text x="730.0" y="501.6530669589464" class="hold">LALT</text>
<rect rx="6.0" ry="6.0" x="760.0" y="465.6530669589464" width="52.0" height="52.0" class="key"/>
<text x="786.0" y="491.6530669589464" class="tap">O</text>
<text x="786.0" y="515.6530669589464" class="hold">LGUI</text>
<rect rx="6.0" ry="6.0" x="816.0" y="465.6530669589464" width="52.0" height="52.0" class="key"/>
<rect rx="6.0" ry="6.0" x="32.0" y="521.6530669589464" width="52.0" height="52.0" class="key"/>
<rect rx="6.0" ry="6.0" x="88.0" y="521.6530669589464" width="52.0" height="52.0" class="key"/>
<text x="114.0" y="547.6530669589464" class="tap">Z</text>
<text x="114.0" y="571.6530669589464" class="hold">Button</text>
<rect rx="6.0" ry="6.0" x="144.0" y="507.6530669589464" width="52.0" height="52.0" class="key"/>
<text x="170.0" y="533.6530669589464" class="tap">X</text>
<text x="170.0" y="557.6530669589464" class="hold">RALT</text>
<rect rx="6.0" ry="6.0" x="200.0" y="500.6530669589464" width="52.0" height="52.0" class="key"/>
<text x="226.0" y="526.6530669589464" class="tap">C</text>
<rect rx="6.0" ry="6.0" x="256.0" y="507.6530669589464" width="52.0" height="52.0" class="key"/>
<text x="282.0" y="533.6530669589464" class="tap">D</text>
<rect rx="6.0" ry="6.0" x="312.0" y="514.6530669589464" width="52.0" height="52.0" class="key"/>
<text x="338.0" y="540.6530669589464" class="tap">V</text>
<rect rx="6.0" ry="6.0" x="536.0" y="514.6530669589464" width="52.0" height="52.0" class="key"/>
<text x="562.0" y="540.6530669589464" class="tap">M</text>
<rect rx="6.0" ry="6.0" x="592.0" y="507.6530669589464" width="52.0" height="52.0" class="key"/>
<text x="618.0" y="533.6530669589464" class="tap">H</text>
<rect rx="6.0" ry="6.0" x="648.0" y="500.6530669589464" width="52.0" height="52.0" class="key"/>
<text x="674.0" y="526.6530669589464" class="tap">,</text>
<rect rx="6.0" ry="6.0" x="704.0" y="507.6530669589464" width="52.0" height="52.0" class="key"/>
<text x="730.0" y="533.6530669589464" class="tap">.</text>
<text x="730.0" y="557.6530669589464" class="hold">RALT</text>
<rect rx="6.0" ry="6.0" x="760.0" y="521.6530669589464" width="52.0" height="52.0" class="key"/>
<text x="786.0" y="547.6530669589464" class="tap">/</text>
<text x="786.0" y="571.6530669589464" class="hold">Button</text>
<rect rx="6.0" ry="6.0" x="816.0" y="521.6530669589464" width="52.0" height="52.0" class="key"/>
<rect rx="6.0" ry="6.0" x="228.0" y="565.5010669589464" width="52.0" height="52.0" class="key"/>
<text x="254.0" y="591.5010669589464" class="tap">ESC</text>
<text x="254.0" y="615.5010669589464" class="hold">Media</text>
<g transform="rotate(15.0, 315.59999999999997, 599.7330669589464)">
<rect rx="6.0" ry="6.0" x="289.59999999999997" y="573.7330669589464" width="52.0" height="52.0" class="key"/>
<text x="315.59999999999997" y="599.7330669589464" class="tap">SPACE</text>
<text x="315.59999999999997" y="623.7330669589464" class="hold">Nav</text>
</g>
<g transform="rotate(30.0, 381.12, 610.9330669589464)">
<rect rx="6.0" ry="6.0" x="355.12" y="570.9330669589464" width="52.0" height="80.0" class="key"/>
<text x="381.12" y="610.9330669589464" class="tap">TAB</text>
<text x="381.12" y="648.9330669589464" class="hold">Mouse</text>
</g>
<g transform="rotate(-30.0, 518.88, 610.9330669589464)">
<rect rx="6.0" ry="6.0" x="492.88" y="570.9330669589464" width="52.0" height="80.0" class="key"/>
<text x="518.88" y="610.9330669589464" class="tap">RET</text>
<text x="518.88" y="648.9330669589464" class="hold">Sym</text>
</g>
<g transform="rotate(-15.0, 584.4, 599.7330669589464)">
<rect rx="6.0" ry="6.0" x="558.4" y="573.7330669589464" width="52.0" height="52.0" class="key"/>
<text x="584.4" y="599.7330669589464" class="tap">BSPC</text>
<text x="584.4" y="623.7330669589464" class="hold">Num</text>
</g>
<rect rx="6.0" ry="6.0" x="620.0" y="565.5010669589464" width="52.0" height="52.0" class="key"/>
<text x="646.0" y="591.5010669589464" class="tap">DEL</text>
<text x="646.0" y="615.5010669589464" class="hold">Fun</text>
</g>
<g class="layer-Tap">
<text x="30.0" y="689.3061339178928" class="label">Tap:</text>
<rect rx="6.0" ry="6.0" x="32.0" y="740.3061339178928" width="52.0" height="52.0" class="key"/>
<rect rx="6.0" ry="6.0" x="88.0" y="740.3061339178928" width="52.0" height="52.0" class="key"/>
<text x="114.0" y="766.3061339178928" class="tap">Q</text>
<rect rx="6.0" ry="6.0" x="144.0" y="726.3061339178928" width="52.0" height="52.0" class="key"/>
<text x="170.0" y="752.3061339178928" class="tap">W</text>
<rect rx="6.0" ry="6.0" x="200.0" y="719.3061339178928" width="52.0" height="52.0" class="key"/>
<text x="226.0" y="745.3061339178928" class="tap">E</text>
<rect rx="6.0" ry="6.0" x="256.0" y="726.3061339178928" width="52.0" height="52.0" class="key"/>
<text x="282.0" y="752.3061339178928" class="tap">R</text>
<rect rx="6.0" ry="6.0" x="312.0" y="733.3061339178928" width="52.0" height="52.0" class="key"/>
<text x="338.0" y="759.3061339178928" class="tap">T</text>
<rect rx="6.0" ry="6.0" x="536.0" y="733.3061339178928" width="52.0" height="52.0" class="key"/>
<text x="562.0" y="759.3061339178928" class="tap">Y</text>
<rect rx="6.0" ry="6.0" x="592.0" y="726.3061339178928" width="52.0" height="52.0" class="key"/>
<text x="618.0" y="752.3061339178928" class="tap">U</text>
<rect rx="6.0" ry="6.0" x="648.0" y="719.3061339178928" width="52.0" height="52.0" class="key"/>
<text x="674.0" y="745.3061339178928" class="tap">I</text>
<rect rx="6.0" ry="6.0" x="704.0" y="726.3061339178928" width="52.0" height="52.0" class="key"/>
<text x="730.0" y="752.3061339178928" class="tap">O</text>
<rect rx="6.0" ry="6.0" x="760.0" y="740.3061339178928" width="52.0" height="52.0" class="key"/>
<text x="786.0" y="766.3061339178928" class="tap">P</text>
<rect rx="6.0" ry="6.0" x="816.0" y="740.3061339178928" width="52.0" height="52.0" class="key"/>
<rect rx="6.0" ry="6.0" x="32.0" y="796.3061339178928" width="52.0" height="52.0" class="key"/>
<rect rx="6.0" ry="6.0" x="88.0" y="796.3061339178928" width="52.0" height="52.0" class="key"/>
<text x="114.0" y="822.3061339178928" class="tap">A</text>
<rect rx="6.0" ry="6.0" x="144.0" y="782.3061339178928" width="52.0" height="52.0" class="key"/>
<text x="170.0" y="808.3061339178928" class="tap">S</text>
<rect rx="6.0" ry="6.0" x="200.0" y="775.3061339178928" width="52.0" height="52.0" class="key"/>
<text x="226.0" y="801.3061339178928" class="tap">D</text>
<rect rx="6.0" ry="6.0" x="256.0" y="782.3061339178928" width="52.0" height="52.0" class="key"/>
<text x="282.0" y="808.3061339178928" class="tap">F</text>
<rect rx="6.0" ry="6.0" x="312.0" y="789.3061339178928" width="52.0" height="52.0" class="key"/>
<text x="338.0" y="815.3061339178928" class="tap">G</text>
<rect rx="6.0" ry="6.0" x="536.0" y="789.3061339178928" width="52.0" height="52.0" class="key"/>
<text x="562.0" y="815.3061339178928" class="tap">H</text>
<rect rx="6.0" ry="6.0" x="592.0" y="782.3061339178928" width="52.0" height="52.0" class="key"/>
<text x="618.0" y="808.3061339178928" class="tap">J</text>
<rect rx="6.0" ry="6.0" x="648.0" y="775.3061339178928" width="52.0" height="52.0" class="key"/>
<text x="674.0" y="801.3061339178928" class="tap">K</text>
<rect rx="6.0" ry="6.0" x="704.0" y="782.3061339178928" width="52.0" height="52.0" class="key"/>
<text x="730.0" y="808.3061339178928" class="tap">L</text>
<rect rx="6.0" ry="6.0" x="760.0" y="796.3061339178928" width="52.0" height="52.0" class="key"/>
<text x="786.0" y="822.3061339178928" class="tap">&#x27;</text>
<rect rx="6.0" ry="6.0" x="816.0" y="796.3061339178928" width="52.0" height="52.0" class="key"/>
<rect rx="6.0" ry="6.0" x="32.0" y="852.3061339178928" width="52.0" height="52.0" class="key"/>
<rect rx="6.0" ry="6.0" x="88.0" y="852.3061339178928" width="52.0" height="52.0" class="key"/>
<text x="114.0" y="878.3061339178928" class="tap">Z</text>
<rect rx="6.0" ry="6.0" x="144.0" y="838.3061339178928" width="52.0" height="52.0" class="key"/>
<text x="170.0" y="864.3061339178928" class="tap">X</text>
<rect rx="6.0" ry="6.0" x="200.0" y="831.3061339178928" width="52.0" height="52.0" class="key"/>
<text x="226.0" y="857.3061339178928" class="tap">C</text>
<rect rx="6.0" ry="6.0" x="256.0" y="838.3061339178928" width="52.0" height="52.0" class="key"/>
<text x="282.0" y="864.3061339178928" class="tap">V</text>
<rect rx="6.0" ry="6.0" x="312.0" y="845.3061339178928" width="52.0" height="52.0" class="key"/>
<text x="338.0" y="871.3061339178928" class="tap">B</text>
<rect rx="6.0" ry="6.0" x="536.0" y="845.3061339178928" width="52.0" height="52.0" class="key"/>
<text x="562.0" y="871.3061339178928" class="tap">N</text>
<rect rx="6.0" ry="6.0" x="592.0" y="838.3061339178928" width="52.0" height="52.0" class="key"/>
<text x="618.0" y="864.3061339178928" class="tap">M</text>
<rect rx="6.0" ry="6.0" x="648.0" y="831.3061339178928" width="52.0" height="52.0" class="key"/>
<text x="674.0" y="857.3061339178928" class="tap">,</text>
<rect rx="6.0" ry="6.0" x="704.0" y="838.3061339178928" width="52.0" height="52.0" class="key"/>
<text x="730.0" y="864.3061339178928" class="tap">.</text>
<rect rx="6.0" ry="6.0" x="760.0" y="852.3061339178928" width="52.0" height="52.0" class="key"/>
<text x="786.0" y="878.3061339178928" class="tap">/</text>
<rect rx="6.0" ry="6.0" x="816.0" y="852.3061339178928" width="52.0" height="52.0" class="key"/>
<rect rx="6.0" ry="6.0" x="228.0" y="896.1541339178928" width="52.0" height="52.0" class="key"/>
<text x="254.0" y="922.1541339178928" class="tap">ESC</text>
<g transform="rotate(15.0, 315.59999999999997, 930.3861339178928)">
<rect rx="6.0" ry="6.0" x="289.59999999999997" y="904.3861339178928" width="52.0" height="52.0" class="key"/>
<text x="315.59999999999997" y="930.3861339178928" class="tap">SPACE</text>
</g>
<g transform="rotate(30.0, 381.12, 941.5861339178928)">
<rect rx="6.0" ry="6.0" x="355.12" y="901.5861339178928" width="52.0" height="80.0" class="key"/>
<text x="381.12" y="941.5861339178928" class="tap">TAB</text>
</g>
<g transform="rotate(-30.0, 518.88, 941.5861339178928)">
<rect rx="6.0" ry="6.0" x="492.88" y="901.5861339178928" width="52.0" height="80.0" class="key"/>
<text x="518.88" y="941.5861339178928" class="tap">RET</text>
</g>
<g transform="rotate(-15.0, 584.4, 930.3861339178928)">
<rect rx="6.0" ry="6.0" x="558.4" y="904.3861339178928" width="52.0" height="52.0" class="key"/>
<text x="584.4" y="930.3861339178928" class="tap">BSPC</text>
</g>
<rect rx="6.0" ry="6.0" x="620.0" y="896.1541339178928" width="52.0" height="52.0" class="key"/>
<text x="646.0" y="922.1541339178928" class="tap">DEL</text>
</g>
<g class="layer-Button">
<text x="30.0" y="1019.9592008768392" class="label">Button:</text>
<rect rx="6.0" ry="6.0" x="32.0" y="1070.959200876839" width="52.0" height="52.0" class="key"/>
<rect rx="6.0" ry="6.0" x="88.0" y="1070.959200876839" width="52.0" height="52.0" class="key"/>
<text x="114.0" y="1096.959200876839" class="tap">UNDO</text>
<rect rx="6.0" ry="6.0" x="144.0" y="1056.959200876839" width="52.0" height="52.0" class="key"/>
<text x="170.0" y="1082.959200876839" class="tap">CUT</text>
<rect rx="6.0" ry="6.0" x="200.0" y="1049.959200876839" width="52.0" height="52.0" class="key"/>
<text x="226.0" y="1075.959200876839" class="tap">COPY</text>
<rect rx="6.0" ry="6.0" x="256.0" y="1056.959200876839" width="52.0" height="52.0" class="key"/>
<text x="282.0" y="1082.959200876839" class="tap">PASTE</text>
<rect rx="6.0" ry="6.0" x="312.0" y="1063.959200876839" width="52.0" height="52.0" class="key"/>
<text x="338.0" y="1089.959200876839" class="tap">REDO</text>
<rect rx="6.0" ry="6.0" x="536.0" y="1063.959200876839" width="52.0" height="52.0" class="key"/>
<text x="562.0" y="1089.959200876839" class="tap">REDO</text>
<rect rx="6.0" ry="6.0" x="592.0" y="1056.959200876839" width="52.0" height="52.0" class="key"/>
<text x="618.0" y="1082.959200876839" class="tap">PASTE</text>
<rect rx="6.0" ry="6.0" x="648.0" y="1049.959200876839" width="52.0" height="52.0" class="key"/>
<text x="674.0" y="1075.959200876839" class="tap">COPY</text>
<rect rx="6.0" ry="6.0" x="704.0" y="1056.959200876839" width="52.0" height="52.0" class="key"/>
<text x="730.0" y="1082.959200876839" class="tap">CUT</text>
<rect rx="6.0" ry="6.0" x="760.0" y="1070.959200876839" width="52.0" height="52.0" class="key"/>
<text x="786.0" y="1096.959200876839" class="tap">UNDO</text>
<rect rx="6.0" ry="6.0" x="816.0" y="1070.959200876839" width="52.0" height="52.0" class="key"/>
<rect rx="6.0" ry="6.0" x="32.0" y="1126.959200876839" width="52.0" height="52.0" class="key"/>
<rect rx="6.0" ry="6.0" x="88.0" y="1126.959200876839" width="52.0" height="52.0" class="key"/>
<text x="114.0" y="1152.959200876839" class="tap">LGUI</text>
<rect rx="6.0" ry="6.0" x="144.0" y="1112.959200876839" width="52.0" height="52.0" class="key"/>
<text x="170.0" y="1138.959200876839" class="tap">LALT</text>
<rect rx="6.0" ry="6.0" x="200.0" y="1105.959200876839" width="52.0" height="52.0" class="key"/>
<text x="226.0" y="1131.959200876839" class="tap">LCTRL</text>
<rect rx="6.0" ry="6.0" x="256.0" y="1112.959200876839" width="52.0" height="52.0" class="key"/>
<text x="282.0" y="1138.959200876839" class="tap">LSHFT</text>
<rect rx="6.0" ry="6.0" x="312.0" y="1119.959200876839" width="52.0" height="52.0" class="key"/>
<rect rx="6.0" ry="6.0" x="536.0" y="1119.959200876839" width="52.0" height="52.0" class="key"/>
<rect rx="6.0" ry="6.0" x="592.0" y="1112.959200876839" width="52.0" height="52.0" class="key"/>
<text x="618.0" y="1138.959200876839" class="tap">LSHFT</text>
<rect rx="6.0" ry="6.0" x="648.0" y="1105.959200876839" width="52.0" height="52.0" class="key"/>
<text x="674.0" y="1131.959200876839" class="tap">LCTRL</text>
<rect rx="6.0" ry="6.0" x="704.0" y="1112.959200876839" width="52.0" height="52.0" class="key"/>
<text x="730.0" y="1138.959200876839" class="tap">LALT</text>
<rect rx="6.0" ry="6.0" x="760.0" y="1126.959200876839" width="52.0" height="52.0" class="key"/>
<text x="786.0" y="1152.959200876839" class="tap">LGUI</text>
<rect rx="6.0" ry="6.0" x="816.0" y="1126.959200876839" width="52.0" height="52.0" class="key"/>
<rect rx="6.0" ry="6.0" x="32.0" y="1182.959200876839" width="52.0" height="52.0" class="key"/>
<rect rx="6.0" ry="6.0" x="88.0" y="1182.959200876839" width="52.0" height="52.0" class="held key"/>
<text x="114.0" y="1208.959200876839" class="held tap">UNDO</text>
<rect rx="6.0" ry="6.0" x="144.0" y="1168.959200876839" width="52.0" height="52.0" class="key"/>
<text x="170.0" y="1194.959200876839" class="tap">CUT</text>
<rect rx="6.0" ry="6.0" x="200.0" y="1161.959200876839" width="52.0" height="52.0" class="key"/>
<text x="226.0" y="1187.959200876839" class="tap">COPY</text>
<rect rx="6.0" ry="6.0" x="256.0" y="1168.959200876839" width="52.0" height="52.0" class="key"/>
<text x="282.0" y="1194.959200876839" class="tap">PASTE</text>
<rect rx="6.0" ry="6.0" x="312.0" y="1175.959200876839" width="52.0" height="52.0" class="key"/>
<text x="338.0" y="1201.959200876839" class="tap">REDO</text>
<rect rx="6.0" ry="6.0" x="536.0" y="1175.959200876839" width="52.0" height="52.0" class="key"/>
<text x="562.0" y="1201.959200876839" class="tap">REDO</text>
<rect rx="6.0" ry="6.0" x="592.0" y="1168.959200876839" width="52.0" height="52.0" class="key"/>
<text x="618.0" y="1194.959200876839" class="tap">PASTE</text>
<rect rx="6.0" ry="6.0" x="648.0" y="1161.959200876839" width="52.0" height="52.0" class="key"/>
<text x="674.0" y="1187.959200876839" class="tap">COPY</text>
<rect rx="6.0" ry="6.0" x="704.0" y="1168.959200876839" width="52.0" height="52.0" class="key"/>
<text x="730.0" y="1194.959200876839" class="tap">CUT</text>
<rect rx="6.0" ry="6.0" x="760.0" y="1182.959200876839" width="52.0" height="52.0" class="key"/>
<text x="786.0" y="1208.959200876839" class="tap">UNDO</text>
<rect rx="6.0" ry="6.0" x="816.0" y="1182.959200876839" width="52.0" height="52.0" class="key"/>
<rect rx="6.0" ry="6.0" x="228.0" y="1226.807200876839" width="52.0" height="52.0" class="key"/>
<text x="254.0" y="1252.807200876839" class="tap">Middle</text>
<g transform="rotate(15.0, 315.59999999999997, 1261.039200876839)">
<rect rx="6.0" ry="6.0" x="289.59999999999997" y="1235.039200876839" width="52.0" height="52.0" class="key"/>
<text x="315.59999999999997" y="1261.039200876839" class="tap">Left</text>
</g>
<g transform="rotate(30.0, 381.12, 1272.239200876839)">
<rect rx="6.0" ry="6.0" x="355.12" y="1232.239200876839" width="52.0" height="80.0" class="key"/>
<text x="381.12" y="1272.239200876839" class="tap">Right</text>
</g>
<g transform="rotate(-30.0, 518.88, 1272.239200876839)">
<rect rx="6.0" ry="6.0" x="492.88" y="1232.239200876839" width="52.0" height="80.0" class="key"/>
<text x="518.88" y="1272.239200876839" class="tap">Right</text>
</g>
<g transform="rotate(-15.0, 584.4, 1261.039200876839)">
<rect rx="6.0" ry="6.0" x="558.4" y="1235.039200876839" width="52.0" height="52.0" class="key"/>
<text x="584.4" y="1261.039200876839" class="tap">Left</text>
</g>
<rect rx="6.0" ry="6.0" x="620.0" y="1226.807200876839" width="52.0" height="52.0" class="key"/>
<text x="646.0" y="1252.807200876839" class="tap">Middle</text>
</g>
<g class="layer-Nav">
<text x="30.0" y="1350.6122678357856" class="label">Nav:</text>
<rect rx="6.0" ry="6.0" x="32.0" y="1401.6122678357856" width="52.0" height="52.0" class="key"/>
<rect rx="6.0" ry="6.0" x="88.0" y="1401.6122678357856" width="52.0" height="52.0" class="key"/>
<text x="114.0" y="1427.6122678357856" class="tap">Boot</text>
<rect rx="6.0" ry="6.0" x="144.0" y="1387.6122678357856" width="52.0" height="52.0" class="key"/>
<text x="170.0" y="1413.6122678357856" class="tap">Tap</text>
<rect rx="6.0" ry="6.0" x="200.0" y="1380.6122678357856" width="52.0" height="52.0" class="key"/>
<text x="226.0" y="1406.6122678357856" class="tap">Extra</text>
<rect rx="6.0" ry="6.0" x="256.0" y="1387.6122678357856" width="52.0" height="52.0" class="key"/>
<text x="282.0" y="1413.6122678357856" class="tap">Base</text>
<rect rx="6.0" ry="6.0" x="312.0" y="1394.6122678357856" width="52.0" height="52.0" class="key"/>
<rect rx="6.0" ry="6.0" x="536.0" y="1394.6122678357856" width="52.0" height="52.0" class="key"/>
<text x="562.0" y="1420.6122678357856" class="tap">REDO</text>
<rect rx="6.0" ry="6.0" x="592.0" y="1387.6122678357856" width="52.0" height="52.0" class="key"/>
<text x="618.0" y="1413.6122678357856" class="tap">PASTE</text>
<rect rx="6.0" ry="6.0" x="648.0" y="1380.6122678357856" width="52.0" height="52.0" class="key"/>
<text x="674.0" y="1406.6122678357856" class="tap">COPY</text>
<rect rx="6.0" ry="6.0" x="704.0" y="1387.6122678357856" width="52.0" height="52.0" class="key"/>
<text x="730.0" y="1413.6122678357856" class="tap">CUT</text>
<rect rx="6.0" ry="6.0" x="760.0" y="1401.6122678357856" width="52.0" height="52.0" class="key"/>
<text x="786.0" y="1427.6122678357856" class="tap">UNDO</text>
<rect rx="6.0" ry="6.0" x="816.0" y="1401.6122678357856" width="52.0" height="52.0" class="key"/>
<rect rx="6.0" ry="6.0" x="32.0" y="1457.6122678357856" width="52.0" height="52.0" class="key"/>
<rect rx="6.0" ry="6.0" x="88.0" y="1457.6122678357856" width="52.0" height="52.0" class="key"/>
<text x="114.0" y="1483.6122678357856" class="tap">LGUI</text>
<rect rx="6.0" ry="6.0" x="144.0" y="1443.6122678357856" width="52.0" height="52.0" class="key"/>
<text x="170.0" y="1469.6122678357856" class="tap">LALT</text>
<rect rx="6.0" ry="6.0" x="200.0" y="1436.6122678357856" width="52.0" height="52.0" class="key"/>
<text x="226.0" y="1462.6122678357856" class="tap">LCTRL</text>
<rect rx="6.0" ry="6.0" x="256.0" y="1443.6122678357856" width="52.0" height="52.0" class="key"/>
<text x="282.0" y="1469.6122678357856" class="tap">LSHFT</text>
<rect rx="6.0" ry="6.0" x="312.0" y="1450.6122678357856" width="52.0" height="52.0" class="key"/>
<rect rx="6.0" ry="6.0" x="536.0" y="1450.6122678357856" width="52.0" height="52.0" class="key"/>
<use href="#material:arrow_left" xlink:href="#material:arrow_left" x="549.5" y="1451.6122678357856" height="50" width="25.0" class="tap glyph material:arrow_left"/>
<rect rx="6.0" ry="6.0" x="592.0" y="1443.6122678357856" width="52.0" height="52.0" class="key"/>
<use href="#material:arrow_drop_down" xlink:href="#material:arrow_drop_down" x="605.5" y="1444.6122678357856" height="50" width="25.0" class="tap glyph material:arrow_drop_down"/>
<rect rx="6.0" ry="6.0" x="648.0" y="1436.6122678357856" width="52.0" height="52.0" class="key"/>
<use href="#material:arrow_drop_up" xlink:href="#material:arrow_drop_up" x="661.5" y="1437.6122678357856" height="50" width="25.0" class="tap glyph material:arrow_drop_up"/>
<rect rx="6.0" ry="6.0" x="704.0" y="1443.6122678357856" width="52.0" height="52.0" class="key"/>
<use href="#material:arrow_right" xlink:href="#material:arrow_right" x="717.5" y="1444.6122678357856" height="50" width="25.0" class="tap glyph material:arrow_right"/>
<rect rx="6.0" ry="6.0" x="760.0" y="1457.6122678357856" width="52.0" height="52.0" class="key"/>
<text x="786.0" y="1483.6122678357856" class="tap" style="font-size: 88%">CapsWord</text>
<text x="786.0" y="1459.6122678357856" class="shifted">CAPS</text>
<rect rx="6.0" ry="6.0" x="816.0" y="1457.6122678357856" width="52.0" height="52.0" class="key"/>
<rect rx="6.0" ry="6.0" x="32.0" y="1513.6122678357856" width="52.0" height="52.0" class="key"/>
<rect rx="6.0" ry="6.0" x="88.0" y="1513.6122678357856" width="52.0" height="52.0" class="key"/>
<rect rx="6.0" ry="6.0" x="144.0" y="1499.6122678357856" width="52.0" height="52.0" class="key"/>
<text x="170.0" y="1525.6122678357856" class="tap">RALT</text>
<rect rx="6.0" ry="6.0" x="200.0" y="1492.6122678357856" width="52.0" height="52.0" class="key"/>
<text x="226.0" y="1518.6122678357856" class="tap">Num</text>
<rect rx="6.0" ry="6.0" x="256.0" y="1499.6122678357856" width="52.0" height="52.0" class="key"/>
<text x="282.0" y="1525.6122678357856" class="tap">Nav</text>
<rect rx="6.0" ry="6.0" x="312.0" y="1506.6122678357856" width="52.0" height="52.0" class="key"/>
<rect rx="6.0" ry="6.0" x="536.0" y="1506.6122678357856" width="52.0" height="52.0" class="key"/>
<text x="562.0" y="1532.6122678357856" class="tap">HOME</text>
<rect rx="6.0" ry="6.0" x="592.0" y="1499.6122678357856" width="52.0" height="52.0" class="key"/>
<text x="618.0" y="1525.6122678357856" class="tap">
<tspan x="618.0" dy="-0.6em">PG</tspan><tspan x="618.0" dy="1.2em">DN</tspan></text>
<rect rx="6.0" ry="6.0" x="648.0" y="1492.6122678357856" width="52.0" height="52.0" class="key"/>
<text x="674.0" y="1518.6122678357856" class="tap">
<tspan x="674.0" dy="-0.6em">PG</tspan><tspan x="674.0" dy="1.2em">UP</tspan></text>
<rect rx="6.0" ry="6.0" x="704.0" y="1499.6122678357856" width="52.0" height="52.0" class="key"/>
<text x="730.0" y="1525.6122678357856" class="tap">END</text>
<rect rx="6.0" ry="6.0" x="760.0" y="1513.6122678357856" width="52.0" height="52.0" class="key"/>
<text x="786.0" y="1539.6122678357856" class="tap">INS</text>
<rect rx="6.0" ry="6.0" x="816.0" y="1513.6122678357856" width="52.0" height="52.0" class="key"/>
<rect rx="6.0" ry="6.0" x="228.0" y="1557.4602678357855" width="52.0" height="52.0" class="key"/>
<g transform="rotate(15.0, 315.59999999999997, 1591.6922678357855)">
<rect rx="6.0" ry="6.0" x="289.59999999999997" y="1565.6922678357855" width="52.0" height="52.0" class="held key"/>
</g>
<g transform="rotate(30.0, 381.12, 1602.8922678357856)">
<rect rx="6.0" ry="6.0" x="355.12" y="1562.8922678357856" width="52.0" height="80.0" class="key"/>
</g>
<g transform="rotate(-30.0, 518.88, 1602.8922678357856)">
<rect rx="6.0" ry="6.0" x="492.88" y="1562.8922678357856" width="52.0" height="80.0" class="key"/>
<text x="518.88" y="1602.8922678357856" class="tap">RET</text>
</g>
<g transform="rotate(-15.0, 584.4, 1591.6922678357855)">
<rect rx="6.0" ry="6.0" x="558.4" y="1565.6922678357855" width="52.0" height="52.0" class="key"/>
<text x="584.4" y="1591.6922678357855" class="tap">BSPC</text>
</g>
<rect rx="6.0" ry="6.0" x="620.0" y="1557.4602678357855" width="52.0" height="52.0" class="key"/>
<text x="646.0" y="1583.4602678357855" class="tap">DEL</text>
</g>
<g class="layer-Mouse">
<text x="30.0" y="1681.265334794732" class="label">Mouse:</text>
<rect rx="6.0" ry="6.0" x="32.0" y="1732.265334794732" width="52.0" height="52.0" class="key"/>
<rect rx="6.0" ry="6.0" x="88.0" y="1732.265334794732" width="52.0" height="52.0" class="key"/>
<text x="114.0" y="1758.265334794732" class="tap">Boot</text>
<rect rx="6.0" ry="6.0" x="144.0" y="1718.265334794732" width="52.0" height="52.0" class="key"/>
<text x="170.0" y="1744.265334794732" class="tap">Tap</text>
<rect rx="6.0" ry="6.0" x="200.0" y="1711.265334794732" width="52.0" height="52.0" class="key"/>
<text x="226.0" y="1737.265334794732" class="tap">Extra</text>
<rect rx="6.0" ry="6.0" x="256.0" y="1718.265334794732" width="52.0" height="52.0" class="key"/>
<text x="282.0" y="1744.265334794732" class="tap">Base</text>
<rect rx="6.0" ry="6.0" x="312.0" y="1725.265334794732" width="52.0" height="52.0" class="key"/>
<rect rx="6.0" ry="6.0" x="536.0" y="1725.265334794732" width="52.0" height="52.0" class="key"/>
<text x="562.0" y="1751.265334794732" class="tap">REDO</text>
<rect rx="6.0" ry="6.0" x="592.0" y="1718.265334794732" width="52.0" height="52.0" class="key"/>
<text x="618.0" y="1744.265334794732" class="tap">PASTE</text>
<rect rx="6.0" ry="6.0" x="648.0" y="1711.265334794732" width="52.0" height="52.0" class="key"/>
<text x="674.0" y="1737.265334794732" class="tap">COPY</text>
<rect rx="6.0" ry="6.0" x="704.0" y="1718.265334794732" width="52.0" height="52.0" class="key"/>
<text x="730.0" y="1744.265334794732" class="tap">CUT</text>
<rect rx="6.0" ry="6.0" x="760.0" y="1732.265334794732" width="52.0" height="52.0" class="key"/>
<text x="786.0" y="1758.265334794732" class="tap">UNDO</text>
<rect rx="6.0" ry="6.0" x="816.0" y="1732.265334794732" width="52.0" height="52.0" class="key"/>
<rect rx="6.0" ry="6.0" x="32.0" y="1788.265334794732" width="52.0" height="52.0" class="key"/>
<rect rx="6.0" ry="6.0" x="88.0" y="1788.265334794732" width="52.0" height="52.0" class="key"/>
<text x="114.0" y="1814.265334794732" class="tap">LGUI</text>
<rect rx="6.0" ry="6.0" x="144.0" y="1774.265334794732" width="52.0" height="52.0" class="key"/>
<text x="170.0" y="1800.265334794732" class="tap">LALT</text>
<rect rx="6.0" ry="6.0" x="200.0" y="1767.265334794732" width="52.0" height="52.0" class="key"/>
<text x="226.0" y="1793.265334794732" class="tap">LCTRL</text>
<rect rx="6.0" ry="6.0" x="256.0" y="1774.265334794732" width="52.0" height="52.0" class="key"/>
<text x="282.0" y="1800.265334794732" class="tap">LSHFT</text>
<rect rx="6.0" ry="6.0" x="312.0" y="1781.265334794732" width="52.0" height="52.0" class="key"/>
<rect rx="6.0" ry="6.0" x="536.0" y="1781.265334794732" width="52.0" height="52.0" class="key"/>
<text x="562.0" y="1807.265334794732" class="tap">
<tspan x="562.0" dy="-0.6em">KP</tspan><tspan x="562.0" dy="1.2em">4</tspan></text>
<rect rx="6.0" ry="6.0" x="592.0" y="1774.265334794732" width="52.0" height="52.0" class="key"/>
<text x="618.0" y="1800.265334794732" class="tap">
<tspan x="618.0" dy="-0.6em">KP</tspan><tspan x="618.0" dy="1.2em">2</tspan></text>
<rect rx="6.0" ry="6.0" x="648.0" y="1767.265334794732" width="52.0" height="52.0" class="key"/>
<text x="674.0" y="1793.265334794732" class="tap">
<tspan x="674.0" dy="-0.6em">KP</tspan><tspan x="674.0" dy="1.2em">8</tspan></text>
<rect rx="6.0" ry="6.0" x="704.0" y="1774.265334794732" width="52.0" height="52.0" class="key"/>
<text x="730.0" y="1800.265334794732" class="tap">
<tspan x="730.0" dy="-0.6em">KP</tspan><tspan x="730.0" dy="1.2em">6</tspan></text>
<rect rx="6.0" ry="6.0" x="760.0" y="1788.265334794732" width="52.0" height="52.0" class="key"/>
<rect rx="6.0" ry="6.0" x="816.0" y="1788.265334794732" width="52.0" height="52.0" class="key"/>
<rect rx="6.0" ry="6.0" x="32.0" y="1844.265334794732" width="52.0" height="52.0" class="key"/>
<rect rx="6.0" ry="6.0" x="88.0" y="1844.265334794732" width="52.0" height="52.0" class="key"/>
<rect rx="6.0" ry="6.0" x="144.0" y="1830.265334794732" width="52.0" height="52.0" class="key"/>
<text x="170.0" y="1856.265334794732" class="tap">RALT</text>
<rect rx="6.0" ry="6.0" x="200.0" y="1823.265334794732" width="52.0" height="52.0" class="key"/>
<text x="226.0" y="1849.265334794732" class="tap">Sym</text>
<rect rx="6.0" ry="6.0" x="256.0" y="1830.265334794732" width="52.0" height="52.0" class="key"/>
<text x="282.0" y="1856.265334794732" class="tap">Mouse</text>
<rect rx="6.0" ry="6.0" x="312.0" y="1837.265334794732" width="52.0" height="52.0" class="key"/>
<rect rx="6.0" ry="6.0" x="536.0" y="1837.265334794732" width="52.0" height="52.0" class="key"/>
<rect rx="6.0" ry="6.0" x="592.0" y="1830.265334794732" width="52.0" height="52.0" class="key"/>
<rect rx="6.0" ry="6.0" x="648.0" y="1823.265334794732" width="52.0" height="52.0" class="key"/>
<rect rx="6.0" ry="6.0" x="704.0" y="1830.265334794732" width="52.0" height="52.0" class="key"/>
<rect rx="6.0" ry="6.0" x="760.0" y="1844.265334794732" width="52.0" height="52.0" class="key"/>
<rect rx="6.0" ry="6.0" x="816.0" y="1844.265334794732" width="52.0" height="52.0" class="key"/>
<rect rx="6.0" ry="6.0" x="228.0" y="1888.113334794732" width="52.0" height="52.0" class="key"/>
<g transform="rotate(15.0, 315.59999999999997, 1922.345334794732)">
<rect rx="6.0" ry="6.0" x="289.59999999999997" y="1896.345334794732" width="52.0" height="52.0" class="key"/>
</g>
<g transform="rotate(30.0, 381.12, 1933.545334794732)">
<rect rx="6.0" ry="6.0" x="355.12" y="1893.545334794732" width="52.0" height="80.0" class="held key"/>
</g>
<g transform="rotate(-30.0, 518.88, 1933.545334794732)">
<rect rx="6.0" ry="6.0" x="492.88" y="1893.545334794732" width="52.0" height="80.0" class="key"/>
<text x="518.88" y="1933.545334794732" class="tap">Right</text>
</g>
<g transform="rotate(-15.0, 584.4, 1922.345334794732)">
<rect rx="6.0" ry="6.0" x="558.4" y="1896.345334794732" width="52.0" height="52.0" class="key"/>
<text x="584.4" y="1922.345334794732" class="tap">Left</text>
</g>
<rect rx="6.0" ry="6.0" x="620.0" y="1888.113334794732" width="52.0" height="52.0" class="key"/>
<text x="646.0" y="1914.113334794732" class="tap">Middle</text>
</g>
<g class="layer-Media">
<text x="30.0" y="2011.9184017536786" class="label">Media:</text>
<rect rx="6.0" ry="6.0" x="32.0" y="2062.9184017536786" width="52.0" height="52.0" class="key"/>
<rect rx="6.0" ry="6.0" x="88.0" y="2062.9184017536786" width="52.0" height="52.0" class="key"/>
<text x="114.0" y="2088.9184017536786" class="tap">Boot</text>
<rect rx="6.0" ry="6.0" x="144.0" y="2048.9184017536786" width="52.0" height="52.0" class="key"/>
<text x="170.0" y="2074.9184017536786" class="tap">Tap</text>
<rect rx="6.0" ry="6.0" x="200.0" y="2041.9184017536786" width="52.0" height="52.0" class="key"/>
<text x="226.0" y="2067.9184017536786" class="tap">Extra</text>
<rect rx="6.0" ry="6.0" x="256.0" y="2048.9184017536786" width="52.0" height="52.0" class="key"/>
<text x="282.0" y="2074.9184017536786" class="tap">Base</text>
<rect rx="6.0" ry="6.0" x="312.0" y="2055.9184017536786" width="52.0" height="52.0" class="key"/>
<rect rx="6.0" ry="6.0" x="536.0" y="2055.9184017536786" width="52.0" height="52.0" class="key"/>
<text x="562.0" y="2081.9184017536786" class="tap">
<tspan x="562.0" dy="-0.6em">RGB</tspan><tspan x="562.0" dy="1.2em">EFF</tspan></text>
<rect rx="6.0" ry="6.0" x="592.0" y="2048.9184017536786" width="52.0" height="52.0" class="key"/>
<text x="618.0" y="2074.9184017536786" class="tap">
<tspan x="618.0" dy="-0.6em">RGB</tspan><tspan x="618.0" dy="1.2em">HUI</tspan></text>
<rect rx="6.0" ry="6.0" x="648.0" y="2041.9184017536786" width="52.0" height="52.0" class="key"/>
<text x="674.0" y="2067.9184017536786" class="tap">
<tspan x="674.0" dy="-0.6em">RGB</tspan><tspan x="674.0" dy="1.2em">SAI</tspan></text>
<rect rx="6.0" ry="6.0" x="704.0" y="2048.9184017536786" width="52.0" height="52.0" class="key"/>
<text x="730.0" y="2074.9184017536786" class="tap">
<tspan x="730.0" dy="-0.6em">RGB</tspan><tspan x="730.0" dy="1.2em">BRI</tspan></text>
<rect rx="6.0" ry="6.0" x="760.0" y="2062.9184017536786" width="52.0" height="52.0" class="key"/>
<text x="786.0" y="2088.9184017536786" class="tap">
<tspan x="786.0" dy="-0.6em">RGB</tspan><tspan x="786.0" dy="1.2em">TOG</tspan></text>
<rect rx="6.0" ry="6.0" x="816.0" y="2062.9184017536786" width="52.0" height="52.0" class="key"/>
<rect rx="6.0" ry="6.0" x="32.0" y="2118.9184017536786" width="52.0" height="52.0" class="key"/>
<rect rx="6.0" ry="6.0" x="88.0" y="2118.9184017536786" width="52.0" height="52.0" class="key"/>
<text x="114.0" y="2144.9184017536786" class="tap">LGUI</text>
<rect rx="6.0" ry="6.0" x="144.0" y="2104.9184017536786" width="52.0" height="52.0" class="key"/>
<text x="170.0" y="2130.9184017536786" class="tap">LALT</text>
<rect rx="6.0" ry="6.0" x="200.0" y="2097.9184017536786" width="52.0" height="52.0" class="key"/>
<text x="226.0" y="2123.9184017536786" class="tap">LCTRL</text>
<rect rx="6.0" ry="6.0" x="256.0" y="2104.9184017536786" width="52.0" height="52.0" class="key"/>
<text x="282.0" y="2130.9184017536786" class="tap">LSHFT</text>
<rect rx="6.0" ry="6.0" x="312.0" y="2111.9184017536786" width="52.0" height="52.0" class="key"/>
<rect rx="6.0" ry="6.0" x="536.0" y="2111.9184017536786" width="52.0" height="52.0" class="key"/>
<text x="562.0" y="2137.9184017536786" class="tap">PREV</text>
<rect rx="6.0" ry="6.0" x="592.0" y="2104.9184017536786" width="52.0" height="52.0" class="key"/>
<text x="618.0" y="2130.9184017536786" class="tap">
<tspan x="618.0" dy="-0.6em">VOL</tspan><tspan x="618.0" dy="1.2em">DN</tspan></text>
<rect rx="6.0" ry="6.0" x="648.0" y="2097.9184017536786" width="52.0" height="52.0" class="key"/>
<text x="674.0" y="2123.9184017536786" class="tap">
<tspan x="674.0" dy="-0.6em">VOL</tspan><tspan x="674.0" dy="1.2em">UP</tspan></text>
<rect rx="6.0" ry="6.0" x="704.0" y="2104.9184017536786" width="52.0" height="52.0" class="key"/>
<text x="730.0" y="2130.9184017536786" class="tap">NEXT</text>
<rect rx="6.0" ry="6.0" x="760.0" y="2118.9184017536786" width="52.0" height="52.0" class="key"/>
<text x="786.0" y="2144.9184017536786" class="tap">
<tspan x="786.0" dy="-0.6em">EP</tspan><tspan x="786.0" dy="1.2em">TOG</tspan></text>
<rect rx="6.0" ry="6.0" x="816.0" y="2118.9184017536786" width="52.0" height="52.0" class="key"/>
<rect rx="6.0" ry="6.0" x="32.0" y="2174.9184017536786" width="52.0" height="52.0" class="key"/>
<rect rx="6.0" ry="6.0" x="88.0" y="2174.9184017536786" width="52.0" height="52.0" class="key"/>
<rect rx="6.0" ry="6.0" x="144.0" y="2160.9184017536786" width="52.0" height="52.0" class="key"/>
<text x="170.0" y="2186.9184017536786" class="tap">RALT</text>
<rect rx="6.0" ry="6.0" x="200.0" y="2153.9184017536786" width="52.0" height="52.0" class="key"/>
<text x="226.0" y="2179.9184017536786" class="tap">Func</text>
<rect rx="6.0" ry="6.0" x="256.0" y="2160.9184017536786" width="52.0" height="52.0" class="key"/>
<text x="282.0" y="2186.9184017536786" class="tap">Media</text>
<rect rx="6.0" ry="6.0" x="312.0" y="2167.9184017536786" width="52.0" height="52.0" class="key"/>
<rect rx="6.0" ry="6.0" x="536.0" y="2167.9184017536786" width="52.0" height="52.0" class="key"/>
<text x="562.0" y="2193.9184017536786" class="tap">
<tspan x="562.0" dy="-0.0em">BT</tspan><tspan x="562.0" dy="1.2em">0</tspan></text>
<text x="562.0" y="2169.9184017536786" class="shifted">Clr 0</text>
<rect rx="6.0" ry="6.0" x="592.0" y="2160.9184017536786" width="52.0" height="52.0" class="key"/>
<text x="618.0" y="2186.9184017536786" class="tap">
<tspan x="618.0" dy="-0.0em">BT</tspan><tspan x="618.0" dy="1.2em">1</tspan></text>
<text x="618.0" y="2162.9184017536786" class="shifted">Clr 1</text>
<rect rx="6.0" ry="6.0" x="648.0" y="2153.9184017536786" width="52.0" height="52.0" class="key"/>
<text x="674.0" y="2179.9184017536786" class="tap">
<tspan x="674.0" dy="-0.0em">BT</tspan><tspan x="674.0" dy="1.2em">2</tspan></text>
<text x="674.0" y="2155.9184017536786" class="shifted">Clr 2</text>
<rect rx="6.0" ry="6.0" x="704.0" y="2160.9184017536786" width="52.0" height="52.0" class="key"/>
<text x="730.0" y="2186.9184017536786" class="tap">
<tspan x="730.0" dy="-0.0em">BT</tspan><tspan x="730.0" dy="1.2em">3</tspan></text>
<text x="730.0" y="2162.9184017536786" class="shifted">Clr 3</text>
<rect rx="6.0" ry="6.0" x="760.0" y="2174.9184017536786" width="52.0" height="52.0" class="key"/>
<text x="786.0" y="2200.9184017536786" class="tap">
<tspan x="786.0" dy="-0.0em">OUT</tspan><tspan x="786.0" dy="1.2em">TOG</tspan></text>
<text x="786.0" y="2176.9184017536786" class="shifted">OUT USB</text>
<rect rx="6.0" ry="6.0" x="816.0" y="2174.9184017536786" width="52.0" height="52.0" class="key"/>
<rect rx="6.0" ry="6.0" x="228.0" y="2218.7664017536786" width="52.0" height="52.0" class="held key"/>
<g transform="rotate(15.0, 315.59999999999997, 2252.9984017536785)">
<rect rx="6.0" ry="6.0" x="289.59999999999997" y="2226.9984017536785" width="52.0" height="52.0" class="key"/>
</g>
<g transform="rotate(30.0, 381.12, 2264.198401753679)">
<rect rx="6.0" ry="6.0" x="355.12" y="2224.198401753679" width="52.0" height="80.0" class="key"/>
</g>
<g transform="rotate(-30.0, 518.88, 2264.198401753679)">
<rect rx="6.0" ry="6.0" x="492.88" y="2224.198401753679" width="52.0" height="80.0" class="key"/>
<text x="518.88" y="2264.198401753679" class="tap">STOP</text>
</g>
<g transform="rotate(-15.0, 584.4, 2252.9984017536785)">
<rect rx="6.0" ry="6.0" x="558.4" y="2226.9984017536785" width="52.0" height="52.0" class="key"/>
<text x="584.4" y="2252.9984017536785" class="tap">PP</text>
</g>
<rect rx="6.0" ry="6.0" x="620.0" y="2218.7664017536786" width="52.0" height="52.0" class="key"/>
<text x="646.0" y="2244.7664017536786" class="tap">MUTE</text>
</g>
<g class="layer-Num">
<text x="30.0" y="2342.571468712625" class="label">Num:</text>
<rect rx="6.0" ry="6.0" x="32.0" y="2393.571468712625" width="52.0" height="52.0" class="key"/>
<rect rx="6.0" ry="6.0" x="88.0" y="2393.571468712625" width="52.0" height="52.0" class="key"/>
<text x="114.0" y="2419.571468712625" class="tap">[</text>
<rect rx="6.0" ry="6.0" x="144.0" y="2379.571468712625" width="52.0" height="52.0" class="key"/>
<text x="170.0" y="2405.571468712625" class="tap">7</text>
<rect rx="6.0" ry="6.0" x="200.0" y="2372.571468712625" width="52.0" height="52.0" class="key"/>
<text x="226.0" y="2398.571468712625" class="tap">8</text>
<rect rx="6.0" ry="6.0" x="256.0" y="2379.571468712625" width="52.0" height="52.0" class="key"/>
<text x="282.0" y="2405.571468712625" class="tap">9</text>
<rect rx="6.0" ry="6.0" x="312.0" y="2386.571468712625" width="52.0" height="52.0" class="key"/>
<text x="338.0" y="2412.571468712625" class="tap">]</text>
<rect rx="6.0" ry="6.0" x="536.0" y="2386.571468712625" width="52.0" height="52.0" class="key"/>
<rect rx="6.0" ry="6.0" x="592.0" y="2379.571468712625" width="52.0" height="52.0" class="key"/>
<text x="618.0" y="2405.571468712625" class="tap">Base</text>
<rect rx="6.0" ry="6.0" x="648.0" y="2372.571468712625" width="52.0" height="52.0" class="key"/>
<text x="674.0" y="2398.571468712625" class="tap">Extra</text>
<rect rx="6.0" ry="6.0" x="704.0" y="2379.571468712625" width="52.0" height="52.0" class="key"/>
<text x="730.0" y="2405.571468712625" class="tap">Tap</text>
<rect rx="6.0" ry="6.0" x="760.0" y="2393.571468712625" width="52.0" height="52.0" class="key"/>
<text x="786.0" y="2419.571468712625" class="tap">Boot</text>
<rect rx="6.0" ry="6.0" x="816.0" y="2393.571468712625" width="52.0" height="52.0" class="key"/>
<rect rx="6.0" ry="6.0" x="32.0" y="2449.571468712625" width="52.0" height="52.0" class="key"/>
<rect rx="6.0" ry="6.0" x="88.0" y="2449.571468712625" width="52.0" height="52.0" class="key"/>
<text x="114.0" y="2475.571468712625" class="tap">;</text>
<rect rx="6.0" ry="6.0" x="144.0" y="2435.571468712625" width="52.0" height="52.0" class="key"/>
<text x="170.0" y="2461.571468712625" class="tap">4</text>
<rect rx="6.0" ry="6.0" x="200.0" y="2428.571468712625" width="52.0" height="52.0" class="key"/>
<text x="226.0" y="2454.571468712625" class="tap">5</text>
<rect rx="6.0" ry="6.0" x="256.0" y="2435.571468712625" width="52.0" height="52.0" class="key"/>
<text x="282.0" y="2461.571468712625" class="tap">6</text>
<rect rx="6.0" ry="6.0" x="312.0" y="2442.571468712625" width="52.0" height="52.0" class="key"/>
<text x="338.0" y="2468.571468712625" class="tap">=</text>
<rect rx="6.0" ry="6.0" x="536.0" y="2442.571468712625" width="52.0" height="52.0" class="key"/>
<rect rx="6.0" ry="6.0" x="592.0" y="2435.571468712625" width="52.0" height="52.0" class="key"/>
<text x="618.0" y="2461.571468712625" class="tap">LSHFT</text>
<rect rx="6.0" ry="6.0" x="648.0" y="2428.571468712625" width="52.0" height="52.0" class="key"/>
<text x="674.0" y="2454.571468712625" class="tap">LCTRL</text>
<rect rx="6.0" ry="6.0" x="704.0" y="2435.571468712625" width="52.0" height="52.0" class="key"/>
<text x="730.0" y="2461.571468712625" class="tap">LALT</text>
<rect rx="6.0" ry="6.0" x="760.0" y="2449.571468712625" width="52.0" height="52.0" class="key"/>
<text x="786.0" y="2475.571468712625" class="tap">LGUI</text>
<rect rx="6.0" ry="6.0" x="816.0" y="2449.571468712625" width="52.0" height="52.0" class="key"/>
<rect rx="6.0" ry="6.0" x="32.0" y="2505.571468712625" width="52.0" height="52.0" class="key"/>
<rect rx="6.0" ry="6.0" x="88.0" y="2505.571468712625" width="52.0" height="52.0" class="key"/>
<text x="114.0" y="2531.571468712625" class="tap">`</text>
<rect rx="6.0" ry="6.0" x="144.0" y="2491.571468712625" width="52.0" height="52.0" class="key"/>
<text x="170.0" y="2517.571468712625" class="tap">1</text>
<rect rx="6.0" ry="6.0" x="200.0" y="2484.571468712625" width="52.0" height="52.0" class="key"/>
<text x="226.0" y="2510.571468712625" class="tap">2</text>
<rect rx="6.0" ry="6.0" x="256.0" y="2491.571468712625" width="52.0" height="52.0" class="key"/>
<text x="282.0" y="2517.571468712625" class="tap">3</text>
<rect rx="6.0" ry="6.0" x="312.0" y="2498.571468712625" width="52.0" height="52.0" class="key"/>
<text x="338.0" y="2524.571468712625" class="tap">\</text>
<rect rx="6.0" ry="6.0" x="536.0" y="2498.571468712625" width="52.0" height="52.0" class="key"/>
<rect rx="6.0" ry="6.0" x="592.0" y="2491.571468712625" width="52.0" height="52.0" class="key"/>
<text x="618.0" y="2517.571468712625" class="tap">Num</text>
<rect rx="6.0" ry="6.0" x="648.0" y="2484.571468712625" width="52.0" height="52.0" class="key"/>
<text x="674.0" y="2510.571468712625" class="tap">Nav</text>
<rect rx="6.0" ry="6.0" x="704.0" y="2491.571468712625" width="52.0" height="52.0" class="key"/>
<text x="730.0" y="2517.571468712625" class="tap">RALT</text>
<rect rx="6.0" ry="6.0" x="760.0" y="2505.571468712625" width="52.0" height="52.0" class="key"/>
<rect rx="6.0" ry="6.0" x="816.0" y="2505.571468712625" width="52.0" height="52.0" class="key"/>
<rect rx="6.0" ry="6.0" x="228.0" y="2549.419468712625" width="52.0" height="52.0" class="key"/>
<text x="254.0" y="2575.419468712625" class="tap">.</text>
<g transform="rotate(15.0, 315.59999999999997, 2583.651468712625)">
<rect rx="6.0" ry="6.0" x="289.59999999999997" y="2557.651468712625" width="52.0" height="52.0" class="key"/>
<text x="315.59999999999997" y="2583.651468712625" class="tap">0</text>
</g>
<g transform="rotate(30.0, 381.12, 2594.8514687126253)">
<rect rx="6.0" ry="6.0" x="355.12" y="2554.8514687126253" width="52.0" height="80.0" class="key"/>
<text x="381.12" y="2594.8514687126253" class="tap">-</text>
</g>
<g transform="rotate(-30.0, 518.88, 2594.8514687126253)">
<rect rx="6.0" ry="6.0" x="492.88" y="2554.8514687126253" width="52.0" height="80.0" class="key"/>
</g>
<g transform="rotate(-15.0, 584.4, 2583.651468712625)">
<rect rx="6.0" ry="6.0" x="558.4" y="2557.651468712625" width="52.0" height="52.0" class="held key"/>
</g>
<rect rx="6.0" ry="6.0" x="620.0" y="2549.419468712625" width="52.0" height="52.0" class="key"/>
</g>
<g class="layer-Sym">
<text x="30.0" y="2673.2245356715716" class="label">Sym:</text>
<rect rx="6.0" ry="6.0" x="32.0" y="2724.2245356715716" width="52.0" height="52.0" class="key"/>
<rect rx="6.0" ry="6.0" x="88.0" y="2724.2245356715716" width="52.0" height="52.0" class="key"/>
<text x="114.0" y="2750.2245356715716" class="tap">{</text>
<rect rx="6.0" ry="6.0" x="144.0" y="2710.2245356715716" width="52.0" height="52.0" class="key"/>
<text x="170.0" y="2736.2245356715716" class="tap">&amp;</text>
<rect rx="6.0" ry="6.0" x="200.0" y="2703.2245356715716" width="52.0" height="52.0" class="key"/>
<text x="226.0" y="2729.2245356715716" class="tap">*</text>
<rect rx="6.0" ry="6.0" x="256.0" y="2710.2245356715716" width="52.0" height="52.0" class="key"/>
<text x="282.0" y="2736.2245356715716" class="tap">(</text>
<rect rx="6.0" ry="6.0" x="312.0" y="2717.2245356715716" width="52.0" height="52.0" class="key"/>
<text x="338.0" y="2743.2245356715716" class="tap">}</text>
<rect rx="6.0" ry="6.0" x="536.0" y="2717.2245356715716" width="52.0" height="52.0" class="key"/>
<rect rx="6.0" ry="6.0" x="592.0" y="2710.2245356715716" width="52.0" height="52.0" class="key"/>
<text x="618.0" y="2736.2245356715716" class="tap">Base</text>
<rect rx="6.0" ry="6.0" x="648.0" y="2703.2245356715716" width="52.0" height="52.0" class="key"/>
<text x="674.0" y="2729.2245356715716" class="tap">Extra</text>
<rect rx="6.0" ry="6.0" x="704.0" y="2710.2245356715716" width="52.0" height="52.0" class="key"/>
<text x="730.0" y="2736.2245356715716" class="tap">Tap</text>
<rect rx="6.0" ry="6.0" x="760.0" y="2724.2245356715716" width="52.0" height="52.0" class="key"/>
<text x="786.0" y="2750.2245356715716" class="tap">Boot</text>
<rect rx="6.0" ry="6.0" x="816.0" y="2724.2245356715716" width="52.0" height="52.0" class="key"/>
<rect rx="6.0" ry="6.0" x="32.0" y="2780.2245356715716" width="52.0" height="52.0" class="key"/>
<rect rx="6.0" ry="6.0" x="88.0" y="2780.2245356715716" width="52.0" height="52.0" class="key"/>
<text x="114.0" y="2806.2245356715716" class="tap">:</text>
<rect rx="6.0" ry="6.0" x="144.0" y="2766.2245356715716" width="52.0" height="52.0" class="key"/>
<text x="170.0" y="2792.2245356715716" class="tap">$</text>
<rect rx="6.0" ry="6.0" x="200.0" y="2759.2245356715716" width="52.0" height="52.0" class="key"/>
<text x="226.0" y="2785.2245356715716" class="tap">%</text>
<rect rx="6.0" ry="6.0" x="256.0" y="2766.2245356715716" width="52.0" height="52.0" class="key"/>
<text x="282.0" y="2792.2245356715716" class="tap">^</text>
<rect rx="6.0" ry="6.0" x="312.0" y="2773.2245356715716" width="52.0" height="52.0" class="key"/>
<text x="338.0" y="2799.2245356715716" class="tap">+</text>
<rect rx="6.0" ry="6.0" x="536.0" y="2773.2245356715716" width="52.0" height="52.0" class="key"/>
<rect rx="6.0" ry="6.0" x="592.0" y="2766.2245356715716" width="52.0" height="52.0" class="key"/>
<text x="618.0" y="2792.2245356715716" class="tap">LSHFT</text>
<rect rx="6.0" ry="6.0" x="648.0" y="2759.2245356715716" width="52.0" height="52.0" class="key"/>
<text x="674.0" y="2785.2245356715716" class="tap">LCTRL</text>
<rect rx="6.0" ry="6.0" x="704.0" y="2766.2245356715716" width="52.0" height="52.0" class="key"/>
<text x="730.0" y="2792.2245356715716" class="tap">LALT</text>
<rect rx="6.0" ry="6.0" x="760.0" y="2780.2245356715716" width="52.0" height="52.0" class="key"/>
<text x="786.0" y="2806.2245356715716" class="tap">LGUI</text>
<rect rx="6.0" ry="6.0" x="816.0" y="2780.2245356715716" width="52.0" height="52.0" class="key"/>
<rect rx="6.0" ry="6.0" x="32.0" y="2836.2245356715716" width="52.0" height="52.0" class="key"/>
<rect rx="6.0" ry="6.0" x="88.0" y="2836.2245356715716" width="52.0" height="52.0" class="key"/>
<text x="114.0" y="2862.2245356715716" class="tap">~</text>
<rect rx="6.0" ry="6.0" x="144.0" y="2822.2245356715716" width="52.0" height="52.0" class="key"/>
<text x="170.0" y="2848.2245356715716" class="tap">!</text>
<rect rx="6.0" ry="6.0" x="200.0" y="2815.2245356715716" width="52.0" height="52.0" class="key"/>
<text x="226.0" y="2841.2245356715716" class="tap">@</text>
<rect rx="6.0" ry="6.0" x="256.0" y="2822.2245356715716" width="52.0" height="52.0" class="key"/>
<text x="282.0" y="2848.2245356715716" class="tap">#</text>
<rect rx="6.0" ry="6.0" x="312.0" y="2829.2245356715716" width="52.0" height="52.0" class="key"/>
<text x="338.0" y="2855.2245356715716" class="tap">|</text>
<rect rx="6.0" ry="6.0" x="536.0" y="2829.2245356715716" width="52.0" height="52.0" class="key"/>
<rect rx="6.0" ry="6.0" x="592.0" y="2822.2245356715716" width="52.0" height="52.0" class="key"/>
<text x="618.0" y="2848.2245356715716" class="tap">Sym</text>
<rect rx="6.0" ry="6.0" x="648.0" y="2815.2245356715716" width="52.0" height="52.0" class="key"/>
<text x="674.0" y="2841.2245356715716" class="tap">Mouse</text>
<rect rx="6.0" ry="6.0" x="704.0" y="2822.2245356715716" width="52.0" height="52.0" class="key"/>
<text x="730.0" y="2848.2245356715716" class="tap">RALT</text>
<rect rx="6.0" ry="6.0" x="760.0" y="2836.2245356715716" width="52.0" height="52.0" class="key"/>
<rect rx="6.0" ry="6.0" x="816.0" y="2836.2245356715716" width="52.0" height="52.0" class="key"/>
<rect rx="6.0" ry="6.0" x="228.0" y="2880.0725356715716" width="52.0" height="52.0" class="key"/>
<text x="254.0" y="2906.0725356715716" class="tap">(</text>
<g transform="rotate(15.0, 315.59999999999997, 2914.3045356715716)">
<rect rx="6.0" ry="6.0" x="289.59999999999997" y="2888.3045356715716" width="52.0" height="52.0" class="key"/>
<text x="315.59999999999997" y="2914.3045356715716" class="tap">)</text>
</g>
<g transform="rotate(30.0, 381.12, 2925.504535671572)">
<rect rx="6.0" ry="6.0" x="355.12" y="2885.504535671572" width="52.0" height="80.0" class="key"/>
<text x="381.12" y="2925.504535671572" class="tap">_</text>
</g>
<g transform="rotate(-30.0, 518.88, 2925.504535671572)">
<rect rx="6.0" ry="6.0" x="492.88" y="2885.504535671572" width="52.0" height="80.0" class="held key"/>
</g>
<g transform="rotate(-15.0, 584.4, 2914.3045356715716)">
<rect rx="6.0" ry="6.0" x="558.4" y="2888.3045356715716" width="52.0" height="52.0" class="key"/>
</g>
<rect rx="6.0" ry="6.0" x="620.0" y="2880.0725356715716" width="52.0" height="52.0" class="key"/>
</g>
<g class="layer-Fun">
<text x="30.0" y="3003.877602630518" class="label">Fun:</text>
<rect rx="6.0" ry="6.0" x="32.0" y="3054.877602630518" width="52.0" height="52.0" class="key"/>
<rect rx="6.0" ry="6.0" x="88.0" y="3054.877602630518" width="52.0" height="52.0" class="key"/>
<text x="114.0" y="3080.877602630518" class="tap">F12</text>
<rect rx="6.0" ry="6.0" x="144.0" y="3040.877602630518" width="52.0" height="52.0" class="key"/>
<text x="170.0" y="3066.877602630518" class="tap">F7</text>
<rect rx="6.0" ry="6.0" x="200.0" y="3033.877602630518" width="52.0" height="52.0" class="key"/>
<text x="226.0" y="3059.877602630518" class="tap">F8</text>
<rect rx="6.0" ry="6.0" x="256.0" y="3040.877602630518" width="52.0" height="52.0" class="key"/>
<text x="282.0" y="3066.877602630518" class="tap">F9</text>
<rect rx="6.0" ry="6.0" x="312.0" y="3047.877602630518" width="52.0" height="52.0" class="key"/>
<text x="338.0" y="3073.877602630518" class="tap">PSCRN</text>
<rect rx="6.0" ry="6.0" x="536.0" y="3047.877602630518" width="52.0" height="52.0" class="key"/>
<rect rx="6.0" ry="6.0" x="592.0" y="3040.877602630518" width="52.0" height="52.0" class="key"/>
<text x="618.0" y="3066.877602630518" class="tap">Base</text>
<rect rx="6.0" ry="6.0" x="648.0" y="3033.877602630518" width="52.0" height="52.0" class="key"/>
<text x="674.0" y="3059.877602630518" class="tap">Extra</text>
<rect rx="6.0" ry="6.0" x="704.0" y="3040.877602630518" width="52.0" height="52.0" class="key"/>
<text x="730.0" y="3066.877602630518" class="tap">Tap</text>
<rect rx="6.0" ry="6.0" x="760.0" y="3054.877602630518" width="52.0" height="52.0" class="key"/>
<text x="786.0" y="3080.877602630518" class="tap">Boot</text>
<rect rx="6.0" ry="6.0" x="816.0" y="3054.877602630518" width="52.0" height="52.0" class="key"/>
<rect rx="6.0" ry="6.0" x="32.0" y="3110.877602630518" width="52.0" height="52.0" class="key"/>
<rect rx="6.0" ry="6.0" x="88.0" y="3110.877602630518" width="52.0" height="52.0" class="key"/>
<text x="114.0" y="3136.877602630518" class="tap">F11</text>
<rect rx="6.0" ry="6.0" x="144.0" y="3096.877602630518" width="52.0" height="52.0" class="key"/>
<text x="170.0" y="3122.877602630518" class="tap">F4</text>
<rect rx="6.0" ry="6.0" x="200.0" y="3089.877602630518" width="52.0" height="52.0" class="key"/>
<text x="226.0" y="3115.877602630518" class="tap">F5</text>
<rect rx="6.0" ry="6.0" x="256.0" y="3096.877602630518" width="52.0" height="52.0" class="key"/>
<text x="282.0" y="3122.877602630518" class="tap">F6</text>
<rect rx="6.0" ry="6.0" x="312.0" y="3103.877602630518" width="52.0" height="52.0" class="key"/>
<text x="338.0" y="3129.877602630518" class="tap">SLCK</text>
<rect rx="6.0" ry="6.0" x="536.0" y="3103.877602630518" width="52.0" height="52.0" class="key"/>
<rect rx="6.0" ry="6.0" x="592.0" y="3096.877602630518" width="52.0" height="52.0" class="key"/>
<text x="618.0" y="3122.877602630518" class="tap">LSHFT</text>
<rect rx="6.0" ry="6.0" x="648.0" y="3089.877602630518" width="52.0" height="52.0" class="key"/>
<text x="674.0" y="3115.877602630518" class="tap">LCTRL</text>
<rect rx="6.0" ry="6.0" x="704.0" y="3096.877602630518" width="52.0" height="52.0" class="key"/>
<text x="730.0" y="3122.877602630518" class="tap">LALT</text>
<rect rx="6.0" ry="6.0" x="760.0" y="3110.877602630518" width="52.0" height="52.0" class="key"/>
<text x="786.0" y="3136.877602630518" class="tap">LGUI</text>
<rect rx="6.0" ry="6.0" x="816.0" y="3110.877602630518" width="52.0" height="52.0" class="key"/>
<rect rx="6.0" ry="6.0" x="32.0" y="3166.877602630518" width="52.0" height="52.0" class="key"/>
<rect rx="6.0" ry="6.0" x="88.0" y="3166.877602630518" width="52.0" height="52.0" class="key"/>
<text x="114.0" y="3192.877602630518" class="tap">F10</text>
<rect rx="6.0" ry="6.0" x="144.0" y="3152.877602630518" width="52.0" height="52.0" class="key"/>
<text x="170.0" y="3178.877602630518" class="tap">F1</text>
<rect rx="6.0" ry="6.0" x="200.0" y="3145.877602630518" width="52.0" height="52.0" class="key"/>
<text x="226.0" y="3171.877602630518" class="tap">F2</text>
<rect rx="6.0" ry="6.0" x="256.0" y="3152.877602630518" width="52.0" height="52.0" class="key"/>
<text x="282.0" y="3178.877602630518" class="tap">F3</text>
<rect rx="6.0" ry="6.0" x="312.0" y="3159.877602630518" width="52.0" height="52.0" class="key"/>
<text x="338.0" y="3185.877602630518" class="tap">
<tspan x="338.0" dy="-0.6em">PAUSE</tspan><tspan x="338.0" dy="1.2em">BREAK</tspan></text>
<rect rx="6.0" ry="6.0" x="536.0" y="3159.877602630518" width="52.0" height="52.0" class="key"/>
<rect rx="6.0" ry="6.0" x="592.0" y="3152.877602630518" width="52.0" height="52.0" class="key"/>
<text x="618.0" y="3178.877602630518" class="tap">Func</text>
<rect rx="6.0" ry="6.0" x="648.0" y="3145.877602630518" width="52.0" height="52.0" class="key"/>
<text x="674.0" y="3171.877602630518" class="tap">Media</text>
<rect rx="6.0" ry="6.0" x="704.0" y="3152.877602630518" width="52.0" height="52.0" class="key"/>
<text x="730.0" y="3178.877602630518" class="tap">RALT</text>
<rect rx="6.0" ry="6.0" x="760.0" y="3166.877602630518" width="52.0" height="52.0" class="key"/>
<rect rx="6.0" ry="6.0" x="816.0" y="3166.877602630518" width="52.0" height="52.0" class="key"/>
<rect rx="6.0" ry="6.0" x="228.0" y="3210.725602630518" width="52.0" height="52.0" class="key"/>
<text x="254.0" y="3236.725602630518" class="tap">APP</text>
<g transform="rotate(15.0, 315.59999999999997, 3244.957602630518)">
<rect rx="6.0" ry="6.0" x="289.59999999999997" y="3218.957602630518" width="52.0" height="52.0" class="key"/>
<text x="315.59999999999997" y="3244.957602630518" class="tap">SPACE</text>
</g>
<g transform="rotate(30.0, 381.12, 3256.1576026305183)">
<rect rx="6.0" ry="6.0" x="355.12" y="3216.1576026305183" width="52.0" height="80.0" class="key"/>
<text x="381.12" y="3256.1576026305183" class="tap">TAB</text>
</g>
<g transform="rotate(-30.0, 518.88, 3256.1576026305183)">
<rect rx="6.0" ry="6.0" x="492.88" y="3216.1576026305183" width="52.0" height="80.0" class="key"/>
</g>
<g transform="rotate(-15.0, 584.4, 3244.957602630518)">
<rect rx="6.0" ry="6.0" x="558.4" y="3218.957602630518" width="52.0" height="52.0" class="key"/>
</g>
<rect rx="6.0" ry="6.0" x="620.0" y="3210.725602630518" width="52.0" height="52.0" class="held key"/>
</g>
<g class="layer-Gaming">
<text x="30.0" y="3334.5306695894647" class="label">Gaming:</text>
<rect rx="6.0" ry="6.0" x="32.0" y="3385.5306695894647" width="52.0" height="52.0" class="key"/>
<rect rx="6.0" ry="6.0" x="88.0" y="3385.5306695894647" width="52.0" height="52.0" class="key"/>
<text x="114.0" y="3411.5306695894647" class="tap">TAB</text>
<rect rx="6.0" ry="6.0" x="144.0" y="3371.5306695894647" width="52.0" height="52.0" class="key"/>
<text x="170.0" y="3397.5306695894647" class="tap">Q</text>
<rect rx="6.0" ry="6.0" x="200.0" y="3364.5306695894647" width="52.0" height="52.0" class="key"/>
<text x="226.0" y="3390.5306695894647" class="tap">W</text>
<rect rx="6.0" ry="6.0" x="256.0" y="3371.5306695894647" width="52.0" height="52.0" class="key"/>
<text x="282.0" y="3397.5306695894647" class="tap">E</text>
<rect rx="6.0" ry="6.0" x="312.0" y="3378.5306695894647" width="52.0" height="52.0" class="key"/>
<text x="338.0" y="3404.5306695894647" class="tap">R</text>
<rect rx="6.0" ry="6.0" x="536.0" y="3378.5306695894647" width="52.0" height="52.0" class="key"/>
<text x="562.0" y="3404.5306695894647" class="tap">T</text>
<rect rx="6.0" ry="6.0" x="592.0" y="3371.5306695894647" width="52.0" height="52.0" class="key"/>
<text x="618.0" y="3397.5306695894647" class="tap">1</text>
<rect rx="6.0" ry="6.0" x="648.0" y="3364.5306695894647" width="52.0" height="52.0" class="key"/>
<text x="674.0" y="3390.5306695894647" class="tap">2</text>
<rect rx="6.0" ry="6.0" x="704.0" y="3371.5306695894647" width="52.0" height="52.0" class="key"/>
<text x="730.0" y="3397.5306695894647" class="tap">3</text>
<rect rx="6.0" ry="6.0" x="760.0" y="3385.5306695894647" width="52.0" height="52.0" class="key"/>
<text x="786.0" y="3411.5306695894647" class="tap">4</text>
<rect rx="6.0" ry="6.0" x="816.0" y="3385.5306695894647" width="52.0" height="52.0" class="key"/>
<rect rx="6.0" ry="6.0" x="32.0" y="3441.5306695894647" width="52.0" height="52.0" class="key"/>
<rect rx="6.0" ry="6.0" x="88.0" y="3441.5306695894647" width="52.0" height="52.0" class="key"/>
<text x="114.0" y="3467.5306695894647" class="tap">LSHFT</text>
<rect rx="6.0" ry="6.0" x="144.0" y="3427.5306695894647" width="52.0" height="52.0" class="key"/>
<text x="170.0" y="3453.5306695894647" class="tap">A</text>
<rect rx="6.0" ry="6.0" x="200.0" y="3420.5306695894647" width="52.0" height="52.0" class="key"/>
<text x="226.0" y="3446.5306695894647" class="tap">S</text>
<rect rx="6.0" ry="6.0" x="256.0" y="3427.5306695894647" width="52.0" height="52.0" class="key"/>
<text x="282.0" y="3453.5306695894647" class="tap">D</text>
<rect rx="6.0" ry="6.0" x="312.0" y="3434.5306695894647" width="52.0" height="52.0" class="key"/>
<text x="338.0" y="3460.5306695894647" class="tap">F</text>
<rect rx="6.0" ry="6.0" x="536.0" y="3434.5306695894647" width="52.0" height="52.0" class="key"/>
<text x="562.0" y="3460.5306695894647" class="tap">G</text>
<rect rx="6.0" ry="6.0" x="592.0" y="3427.5306695894647" width="52.0" height="52.0" class="key"/>
<text x="618.0" y="3453.5306695894647" class="tap">
<tspan x="618.0" dy="-0.6em">KP</tspan><tspan x="618.0" dy="1.2em">4</tspan></text>
<rect rx="6.0" ry="6.0" x="648.0" y="3420.5306695894647" width="52.0" height="52.0" class="key"/>
<text x="674.0" y="3446.5306695894647" class="tap">
<tspan x="674.0" dy="-0.6em">KP</tspan><tspan x="674.0" dy="1.2em">2</tspan></text>
<rect rx="6.0" ry="6.0" x="704.0" y="3427.5306695894647" width="52.0" height="52.0" class="key"/>
<text x="730.0" y="3453.5306695894647" class="tap">
<tspan x="730.0" dy="-0.6em">KP</tspan><tspan x="730.0" dy="1.2em">8</tspan></text>
<rect rx="6.0" ry="6.0" x="760.0" y="3441.5306695894647" width="52.0" height="52.0" class="key"/>
<text x="786.0" y="3467.5306695894647" class="tap">
<tspan x="786.0" dy="-0.6em">KP</tspan><tspan x="786.0" dy="1.2em">6</tspan></text>
<rect rx="6.0" ry="6.0" x="816.0" y="3441.5306695894647" width="52.0" height="52.0" class="key"/>
<rect rx="6.0" ry="6.0" x="32.0" y="3497.5306695894647" width="52.0" height="52.0" class="key"/>
<rect rx="6.0" ry="6.0" x="88.0" y="3497.5306695894647" width="52.0" height="52.0" class="key"/>
<text x="114.0" y="3523.5306695894647" class="tap">ESC</text>
<rect rx="6.0" ry="6.0" x="144.0" y="3483.5306695894647" width="52.0" height="52.0" class="key"/>
<text x="170.0" y="3509.5306695894647" class="tap">Z</text>
<rect rx="6.0" ry="6.0" x="200.0" y="3476.5306695894647" width="52.0" height="52.0" class="key"/>
<text x="226.0" y="3502.5306695894647" class="tap">X</text>
<rect rx="6.0" ry="6.0" x="256.0" y="3483.5306695894647" width="52.0" height="52.0" class="key"/>
<text x="282.0" y="3509.5306695894647" class="tap">C</text>
<rect rx="6.0" ry="6.0" x="312.0" y="3490.5306695894647" width="52.0" height="52.0" class="key"/>
<text x="338.0" y="3516.5306695894647" class="tap">V</text>
<rect rx="6.0" ry="6.0" x="536.0" y="3490.5306695894647" width="52.0" height="52.0" class="key"/>
<text x="562.0" y="3516.5306695894647" class="tap">B</text>
<rect rx="6.0" ry="6.0" x="592.0" y="3483.5306695894647" width="52.0" height="52.0" class="key"/>
<text x="618.0" y="3509.5306695894647" class="tap">[</text>
<rect rx="6.0" ry="6.0" x="648.0" y="3476.5306695894647" width="52.0" height="52.0" class="key"/>
<text x="674.0" y="3502.5306695894647" class="tap">,</text>
<rect rx="6.0" ry="6.0" x="704.0" y="3483.5306695894647" width="52.0" height="52.0" class="key"/>
<text x="730.0" y="3509.5306695894647" class="tap">.</text>
<rect rx="6.0" ry="6.0" x="760.0" y="3497.5306695894647" width="52.0" height="52.0" class="key"/>
<text x="786.0" y="3523.5306695894647" class="tap">]</text>
<rect rx="6.0" ry="6.0" x="816.0" y="3497.5306695894647" width="52.0" height="52.0" class="key"/>
<rect rx="6.0" ry="6.0" x="228.0" y="3541.3786695894646" width="52.0" height="52.0" class="key"/>
<text x="254.0" y="3567.3786695894646" class="tap">LCTRL</text>
<g transform="rotate(15.0, 315.59999999999997, 3575.6106695894646)">
<rect rx="6.0" ry="6.0" x="289.59999999999997" y="3549.6106695894646" width="52.0" height="52.0" class="key"/>
<text x="315.59999999999997" y="3575.6106695894646" class="tap">SPC</text>
</g>
<g transform="rotate(30.0, 381.12, 3586.810669589465)">
<rect rx="6.0" ry="6.0" x="355.12" y="3546.810669589465" width="52.0" height="80.0" class="key"/>
<text x="381.12" y="3586.810669589465" class="tap">LALT</text>
</g>
<g transform="rotate(-30.0, 518.88, 3586.810669589465)">
<rect rx="6.0" ry="6.0" x="492.88" y="3546.810669589465" width="52.0" height="80.0" class="key"/>
<text x="518.88" y="3586.810669589465" class="tap">Right</text>
</g>
<g transform="rotate(-15.0, 584.4, 3575.6106695894646)">
<rect rx="6.0" ry="6.0" x="558.4" y="3549.6106695894646" width="52.0" height="52.0" class="key"/>
<text x="584.4" y="3575.6106695894646" class="tap">Left</text>
</g>
<rect rx="6.0" ry="6.0" x="620.0" y="3541.3786695894646" width="52.0" height="52.0" class="key"/>
<text x="646.0" y="3567.3786695894646" class="tap">Middle</text>
</g>
</svg>
